<?xml version="1.0" encoding="utf-8"?>
<!-- Generator: Adobe Illustrator 28.0.0, SVG Export Plug-In . SVG Version: 6.00 Build 0)  -->
<svg version="1.1" id="Icons" xmlns="http://www.w3.org/2000/svg" xmlns:xlink="http://www.w3.org/1999/xlink" x="0px" y="0px"
	 viewBox="0 0 48 38" style="enable-background:new 0 0 48 38;" xml:space="preserve">
<style type="text/css">
	.st0{fill:#F0F0F0;stroke:#45413C;stroke-linecap:round;stroke-linejoin:round;stroke-miterlimit:10;}
	.st1{fill:#F0F0F0;}
	.st2{fill:#E0E0E0;}
	.st3{fill:#FFFFFF;}
	.st4{fill:#FFAA54;}
	.st5{fill:#656769;}
	.st6{fill:#525252;}
	.st7{fill:none;stroke:#45413C;stroke-linecap:round;stroke-linejoin:round;stroke-miterlimit:10;}
	.st8{fill:#FFB0CA;stroke:#45413C;stroke-linecap:round;stroke-linejoin:round;stroke-miterlimit:10;}
	.st9{fill:#FF6242;}
	.st10{fill:#FF866E;}
</style>
<g>
	<path class="st0" d="M46.5,8.2c-1.1-0.6-2.6,0.1-2.8,1.4c-0.4,2.6-2,4.9-4.4,6.2c0,0.3,0,0.7,0,1.1c0,3.2,0.1,5.9,0.3,8.2l1.8-1.9
		c3.4-3.6,5.5-8.2,5.9-13.2C47.6,9.3,47.2,8.5,46.5,8.2z"/>
	<path class="st0" d="M8.2,25c0.2-2.3,0.3-5,0.3-8.2c0-0.4,0-0.7,0-1.1c-2.3-1.3-4-3.6-4.4-6.2c-0.2-1.3-1.6-2-2.8-1.4
		c-0.7,0.4-1,1.1-1,1.8c0.6,5,2.7,9.7,6.1,13.2L8.2,25z"/>
	<path id="XMLID_1516_" class="st1" d="M39.4,16.8c0-8.5-6.9-15.4-15.4-15.4S8.6,8.3,8.6,16.8c0,18.1-4.3,19.7-2.7,19.7
		c3.8,0,4.6-1.9,6.9-1.9s3.1,1.9,5.8,1.9s3.1-1.9,5.4-1.9s2.7,1.9,5.4,1.9s3.5-1.9,5.8-1.9s3.2,1.9,6.9,1.9
		C43.7,36.5,39.4,35,39.4,16.8z"/>
	<path id="XMLID_1515_" class="st2" d="M35.9,32.4c-2.5,0-3.3,1.9-6.2,1.9s-3.3-1.9-5.8-1.9s-2.9,1.9-5.8,1.9s-3.7-1.9-6.2-1.9
		c-2.1,0-3.1,1.3-5.7,1.8c-0.8,2.1-1.3,2.4-0.5,2.4c3.8,0,4.6-1.9,6.9-1.9s3.1,1.9,5.8,1.9s3.1-1.9,5.4-1.9s2.7,1.9,5.4,1.9
		s3.5-1.9,5.8-1.9s3.2,1.9,6.9,1.9c0.7,0,0.2-0.3-0.5-2.4C39,33.7,38,32.4,35.9,32.4z"/>
	<ellipse id="XMLID_1514_" class="st3" cx="24" cy="4.5" rx="4.6" ry="1.2"/>
	<ellipse id="XMLID_1512_" class="st4" cx="14.7" cy="20.7" rx="1.9" ry="1.2"/>
	<ellipse id="XMLID_1511_" class="st2" cx="14.7" cy="20.7" rx="1.9" ry="1.2"/>
	<ellipse id="XMLID_1510_" class="st2" cx="33.3" cy="20.7" rx="1.9" ry="1.2"/>
	<circle id="XMLID_538_" class="st5" cx="30.6" cy="15.3" r="2.7"/>
	<path id="XMLID_536_" class="st6" d="M30.6,14.1c1.2,0,2.2,0.8,2.6,1.9c0.1-0.2,0.1-0.5,0.1-0.8c0-1.5-1.2-2.7-2.7-2.7
		s-2.7,1.2-2.7,2.7c0,0.3,0.1,0.5,0.1,0.8C28.3,15,29.3,14.1,30.6,14.1z"/>
	<circle id="XMLID_534_" class="st7" cx="30.6" cy="15.3" r="2.7"/>
	<circle id="XMLID_533_" class="st5" cx="17.4" cy="14.1" r="3.9"/>
	<path id="XMLID_1505_" class="st6" d="M17.4,12.2c1.8,0,3.3,1.2,3.7,2.9c0.1-0.3,0.1-0.6,0.1-1c0-2.1-1.7-3.9-3.9-3.9
		s-3.9,1.7-3.9,3.9c0,0.3,0.1,0.7,0.1,1C14.1,13.4,15.6,12.2,17.4,12.2z"/>
	<circle id="XMLID_1504_" class="st7" cx="17.4" cy="14.1" r="3.9"/>
	<path id="XMLID_1503_" class="st7" d="M39.4,16.8c0-8.5-6.9-15.4-15.4-15.4S8.6,8.3,8.6,16.8c0,18.1-4.3,19.7-2.7,19.7
		c3.8,0,4.6-1.9,6.9-1.9s3.1,1.9,5.8,1.9s3.1-1.9,5.4-1.9s2.7,1.9,5.4,1.9s3.5-1.9,5.8-1.9s3.2,1.9,6.9,1.9
		C43.7,36.5,39.4,35,39.4,16.8z"/>
	<g id="XMLID_1501_">
		<path id="XMLID_1502_" class="st8" d="M18.2,22.6c0.4,6.2,3.9,8.5,5.3,9.2c0.3,0.2,0.7,0.2,1.1,0c1.4-0.8,4.9-3,5.3-9.2
			c0-0.6-0.4-1.1-1.1-1.1h-9.5C18.6,21.5,18.2,22,18.2,22.6z"/>
	</g>
	<g id="XMLID_1497_">
		<path id="XMLID_1500_" class="st9" d="M24,26.5c0-1.2,3.5-0.8,3.5,0.4v5c0,1.9-1.6,3.5-3.5,3.5s-3.5-1.6-3.5-3.5v-5
			C20.5,25.7,24,25.3,24,26.5z"/>
		<path id="XMLID_1499_" class="st10" d="M24,26.5c0-1.2-3.5-0.8-3.5,0.4v1.5c0-1.2,6.9-1.2,6.9,0v-1.5C27.5,25.7,24,25.3,24,26.5z"
			/>
		<path id="XMLID_1498_" class="st7" d="M24,26.5c0-1.2,3.5-0.8,3.5,0.4v5c0,1.9-1.6,3.5-3.5,3.5s-3.5-1.6-3.5-3.5v-5
			C20.5,25.7,24,25.3,24,26.5z"/>
	</g>
</g>
</svg>
